<svg width="48" height="48" viewBox="0 0 48 48" fill="none" xmlns="http://www.w3.org/2000/svg">
<g clip-path="url(#clip0_71_283)">
<path d="M13.9939 13.9938C8.46726 19.5204 8.47274 28.4604 14.0061 33.9938C19.5395 39.5272 28.4795 39.5327 34.0061 34.0061C39.5327 28.4794 39.5273 19.5394 33.9939 14.0061C28.4605 8.47267 19.5205 8.46719 13.9939 13.9938ZM32.5891 22.5952L32.5909 25.4152L25.4109 25.4108L25.4153 32.5908L22.5953 32.5891L22.5909 25.4091L15.4109 25.4047L15.4091 22.5847L22.5891 22.5891L22.5847 15.4091L25.4047 15.4108L25.4091 22.5908L32.5891 22.5952Z" fill="#404040" fill-opacity="0.85"/>
<path d="M13.9939 13.9938C8.46726 19.5204 8.47274 28.4604 14.0061 33.9938C19.5395 39.5272 28.4795 39.5327 34.0061 34.0061C39.5327 28.4794 39.5273 19.5394 33.9939 14.0061C28.4605 8.47267 19.5205 8.46719 13.9939 13.9938ZM32.5891 22.5952L32.5909 25.4152L25.4109 25.4108L25.4153 32.5908L22.5953 32.5891L22.5909 25.4091L15.4109 25.4047L15.4091 22.5847L22.5891 22.5891L22.5847 15.4091L25.4047 15.4108L25.4091 22.5908L32.5891 22.5952Z" fill="black" fill-opacity="0.25"/>
</g>
<defs>
<clipPath id="clip0_71_283">
<rect width="33.9203" height="33.9619" fill="white" transform="translate(0 23.9852) rotate(-45)"/>
</clipPath>
</defs>
</svg>
