<svg id="svg" version="1.1" xmlns="http://www.w3.org/2000/svg" xmlns:xlink="http://www.w3.org/1999/xlink" width="400" height="225" viewBox="0, 0, 400,225"><g id="svgg"><path id="path0" d="M17.646 14.531 L 0.008 29.063 0.004 63.420 C 0.002 82.317,0.035 97.739,0.077 97.691 C 0.135 97.624,62.349 3.176,64.049 0.573 L 64.423 0.000 49.853 -0.000 L 35.284 -0.000 17.646 14.531 M322.295 5.781 C 319.956 8.961,282.623 59.539,239.334 118.176 C 196.044 176.814,160.625 224.838,160.625 224.895 C 160.625 224.953,200.483 224.977,249.197 224.948 L 337.770 224.896 368.885 158.168 L 400.000 91.440 400.000 45.720 L 400.000 0.000 363.274 -0.000 L 326.549 -0.000 322.295 5.781 M353.522 217.310 C 351.642 221.334,350.073 224.710,350.035 224.813 C 349.997 224.916,350.254 225.000,350.608 225.000 C 350.961 225.000,351.250 224.966,351.250 224.924 C 351.250 224.882,352.559 221.534,354.158 217.485 C 355.757 213.435,357.037 210.093,357.003 210.058 C 356.968 210.023,355.401 213.287,353.522 217.310 " stroke="none" fill="#6c1414" fill-rule="evenodd"></path><path id="path1" d="M0.000 8.552 L 0.000 17.104 1.719 15.672 C 2.664 14.885,7.234 11.118,11.875 7.302 C 16.516 3.485,20.402 0.281,20.510 0.181 C 20.623 0.078,16.247 0.000,10.354 0.000 L 0.000 0.000 0.000 8.552 M32.240 48.995 L 0.000 97.971 0.000 161.485 L 0.000 225.000 80.183 225.000 L 160.366 225.000 239.763 117.448 C 283.432 58.294,320.799 7.669,322.802 4.948 L 326.444 0.000 195.461 0.010 L 64.479 0.020 32.240 48.995 M379.225 162.240 C 359.226 205.136,358.444 206.859,354.931 215.781 L 351.300 225.000 375.650 225.000 L 400.000 225.000 400.000 171.458 C 400.000 142.010,399.975 117.917,399.944 117.917 C 399.913 117.917,390.589 137.862,379.225 162.240 " stroke="none" fill="#fbfbfb" fill-rule="evenodd"></path><path id="path2" d="M10.413 8.498 L 0.104 16.996 0.049 23.005 L -0.006 29.014 1.091 28.088 C 1.694 27.578,9.406 21.223,18.229 13.966 C 27.052 6.708,34.456 0.597,34.682 0.385 C 35.082 0.010,34.907 0.000,27.907 0.000 L 20.722 0.000 10.413 8.498 M369.003 158.129 C 352.011 194.568,338.056 224.522,337.990 224.694 C 337.884 224.968,338.607 225.000,343.879 224.951 L 349.888 224.896 353.866 216.365 C 356.053 211.673,357.957 207.712,358.096 207.563 C 358.236 207.414,358.304 207.292,358.248 207.292 C 358.192 207.292,358.413 206.753,358.739 206.094 C 359.065 205.435,368.483 185.270,379.667 161.283 L 400.003 117.671 399.949 104.774 L 399.896 91.878 369.003 158.129 " stroke="none" fill="#949494" fill-rule="evenodd"></path><path id="path3" d="" stroke="none" fill="#9e7c7c" fill-rule="evenodd"></path><path id="path4" d="" stroke="none" fill="#a88484" fill-rule="evenodd"></path></g></svg>